<?xml version="1.0" standalone="no"?>
<!DOCTYPE svg PUBLIC "-//W3C//DTD SVG 20010904//EN"
 "http://www.w3.org/TR/2001/REC-SVG-20010904/DTD/svg10.dtd">
<svg version="1.0" xmlns="http://www.w3.org/2000/svg"
 width="512.000000pt" height="512.000000pt" viewBox="0 0 512.000000 512.000000"
 preserveAspectRatio="xMidYMid meet">
<metadata>
Created by potrace 1.11, written by Peter Selinger 2001-2013
</metadata>
<g transform="translate(0.000000,512.000000) scale(0.100000,-0.100000)"
fill="#000000" stroke="none">
<path d="M0 2560 l0 -2560 2560 0 2560 0 0 2560 0 2560 -2560 0 -2560 0 0
-2560z m2812 1829 c497 -287 906 -524 910 -528 4 -4 -109 -74 -252 -156 l-260
-150 0 -1662 c0 -915 -3 -1663 -6 -1663 -4 0 -418 237 -920 527 l-914 528 2
1664 3 1663 255 149 c140 81 260 148 267 149 7 0 419 -234 915 -521z"/>
</g>
</svg>
